<?xml version="1.0" encoding="utf-8"?>
<!-- Generator: Adobe Illustrator 21.1.0, SVG Export Plug-In . SVG Version: 6.00 Build 0)  -->
<svg version="1.1" id="Layer_1" xmlns="http://www.w3.org/2000/svg" xmlns:xlink="http://www.w3.org/1999/xlink" x="0px" y="0px"
	 viewBox="0 0 148 101.9" style="enable-background:new 0 0 148 101.9;" xml:space="preserve">
<style type="text/css">
	.st0{fill:#202121;}
</style>
<path id="XMLID_79_" class="st0" d="M148,74.5c0-7-2.6-13.4-6.9-18.3c-1.5-1.9-3.3-3.5-5.3-4.9c0,0-0.1-0.1-0.2-0.1l0,0
	c0,0,0.1-0.1,0.2-0.1c2-1.4,3.8-3,5.3-4.9c4.3-4.9,6.9-11.3,6.9-18.3s-2.6-13.3-6.8-18.2c-0.1-0.1-0.2-0.2-0.3-0.3
	c-0.1-0.2-0.3-0.3-0.4-0.5c-0.1-0.1-0.2-0.2-0.3-0.4c-0.1-0.1-0.3-0.3-0.4-0.4c-0.3-0.3-0.6-0.6-0.9-0.9c-0.1-0.1-0.2-0.2-0.3-0.3
	c-0.3-0.3-0.6-0.5-0.9-0.8c-0.2-0.1-0.3-0.3-0.5-0.4c-0.3-0.2-0.6-0.5-0.9-0.7c-0.2-0.1-0.3-0.2-0.5-0.3c-0.2-0.1-0.3-0.2-0.5-0.3
	c-0.6-0.4-1.3-0.8-2-1.2c-0.2-0.1-0.3-0.2-0.5-0.3c-0.1,0-0.2-0.1-0.3-0.1c-0.2-0.1-0.4-0.2-0.6-0.3c-0.2-0.1-0.4-0.2-0.6-0.3
	c-1.1-0.5-2.3-0.9-3.5-1.2c-0.2,0-0.4-0.1-0.6-0.2c-0.2,0-0.4-0.1-0.6-0.2c-0.4-0.1-0.8-0.2-1.2-0.2c-0.4-0.1-0.8-0.1-1.3-0.2
	c-0.2,0-0.4,0-0.6-0.1c-0.4,0-0.9-0.1-1.3-0.1c-0.2,0-0.4,0-0.6,0l0,0l0,0l0,0c-0.1,0-0.1,0-0.2,0l0,0h-0.2H91.7l13.8,23l0,0h6.2
	h2.9c2.7,0,5.1,1.2,6.7,3c1.5,1.6,2.4,3.8,2.4,6.1c0,0.1,0,0.1,0,0.2c-0.3,1.7-1.1,3.3-2.2,4.5c-0.1,0.1-0.2,0.2-0.2,0.2l-0.6,0.5
	l0,0l0,0l-0.3,0.2l-0.2,0.2c-0.1,0.1-0.2,0.1-0.2,0.2L105.5,51L120,63.9c0.1,0,0.1,0.1,0.2,0.2l0,0l0.2,0.2l0.3,0.2l0,0l0,0
	c0,0,0.7,0.7,0.8,0.7c1.1,1.2,1.9,2.8,2.2,4.5c0,0.1,0,0.1,0,0.2c0,2.4-0.9,4.5-2.4,6.1c-1.6,1.8-4,2.9-6.5,3H88.6V0l0,0H31L0,51
	l31,50.7h29.1L27.9,51.2l17.6-28l0,0h17.7v78.7H125c0.2,0,0.3,0,0.4-0.1c0.4-0.1,0.8-0.1,1.2-0.2c0.2,0,0.4-0.1,0.6-0.2
	c0.2,0,0.4-0.1,0.6-0.2c1.2-0.3,2.4-0.7,3.5-1.2c0.2-0.1,0.4-0.2,0.6-0.3c0.2-0.1,0.4-0.2,0.6-0.3c0.1,0,0.2-0.1,0.3-0.1
	c0.2-0.1,0.3-0.2,0.5-0.3c0.7-0.4,1.3-0.8,2-1.2c0.2-0.1,0.3-0.2,0.5-0.3c0.2-0.1,0.3-0.2,0.5-0.3c0.3-0.2,0.6-0.5,0.9-0.7
	c0.2-0.1,0.3-0.2,0.5-0.4c0.3-0.2,0.6-0.5,0.9-0.8c0.1-0.1,0.2-0.2,0.3-0.3c0.3-0.3,0.6-0.6,0.9-0.9c0.1-0.1,0.3-0.3,0.4-0.4
	c0.1-0.1,0.2-0.2,0.3-0.4c0.1-0.2,0.3-0.3,0.4-0.5c0.1-0.1,0.2-0.2,0.3-0.3C145.4,87.8,148,81.4,148,74.5z"/>
</svg>
